<svg id="visual" viewBox="0 0 900 300" width="900" height="300" xmlns="http://www.w3.org/2000/svg" xmlns:xlink="http://www.w3.org/1999/xlink" version="1.1"><rect x="0" y="0" width="900" height="300" fill="#202731"></rect><path d="M0 122L21.5 115.7C43 109.3 86 96.7 128.8 96.5C171.7 96.3 214.3 108.7 257.2 108.3C300 108 343 95 385.8 95.3C428.7 95.7 471.3 109.3 514.2 109.8C557 110.3 600 97.7 642.8 96C685.7 94.3 728.3 103.7 771.2 102.2C814 100.7 857 88.3 878.5 82.2L900 76L900 0L878.5 0C857 0 814 0 771.2 0C728.3 0 685.7 0 642.8 0C600 0 557 0 514.2 0C471.3 0 428.7 0 385.8 0C343 0 300 0 257.2 0C214.3 0 171.7 0 128.8 0C86 0 43 0 21.5 0L0 0Z" fill="#fa7268"></path><path d="M0 100L21.5 95.2C43 90.3 86 80.7 128.8 75.8C171.7 71 214.3 71 257.2 74.5C300 78 343 85 385.8 86.3C428.7 87.7 471.3 83.3 514.2 79C557 74.7 600 70.3 642.8 73.7C685.7 77 728.3 88 771.2 88.7C814 89.3 857 79.7 878.5 74.8L900 70L900 0L878.5 0C857 0 814 0 771.2 0C728.3 0 685.7 0 642.8 0C600 0 557 0 514.2 0C471.3 0 428.7 0 385.8 0C343 0 300 0 257.2 0C214.3 0 171.7 0 128.8 0C86 0 43 0 21.5 0L0 0Z" fill="#f3665b"></path><path d="M0 79L21.5 75.3C43 71.7 86 64.3 128.8 59.3C171.7 54.3 214.3 51.7 257.2 49.5C300 47.3 343 45.7 385.8 47.3C428.7 49 471.3 54 514.2 55.3C557 56.7 600 54.3 642.8 52.5C685.7 50.7 728.3 49.3 771.2 51.3C814 53.3 857 58.7 878.5 61.3L900 64L900 0L878.5 0C857 0 814 0 771.2 0C728.3 0 685.7 0 642.8 0C600 0 557 0 514.2 0C471.3 0 428.7 0 385.8 0C343 0 300 0 257.2 0C214.3 0 171.7 0 128.8 0C86 0 43 0 21.5 0L0 0Z" fill="#ec594d"></path><path d="M0 43L21.5 44.7C43 46.3 86 49.7 128.8 49.2C171.7 48.7 214.3 44.3 257.2 44C300 43.7 343 47.3 385.8 46.7C428.7 46 471.3 41 514.2 37.5C557 34 600 32 642.8 30.7C685.7 29.3 728.3 28.7 771.2 30C814 31.3 857 34.7 878.5 36.3L900 38L900 0L878.5 0C857 0 814 0 771.2 0C728.3 0 685.7 0 642.8 0C600 0 557 0 514.2 0C471.3 0 428.7 0 385.8 0C343 0 300 0 257.2 0C214.3 0 171.7 0 128.8 0C86 0 43 0 21.5 0L0 0Z" fill="#e54c3f"></path><path d="M0 35L21.5 32.5C43 30 86 25 128.8 24.8C171.7 24.7 214.3 29.3 257.2 31.2C300 33 343 32 385.8 30.7C428.7 29.3 471.3 27.7 514.2 28.3C557 29 600 32 642.8 33.5C685.7 35 728.3 35 771.2 31.5C814 28 857 21 878.5 17.5L900 14L900 0L878.5 0C857 0 814 0 771.2 0C728.3 0 685.7 0 642.8 0C600 0 557 0 514.2 0C471.3 0 428.7 0 385.8 0C343 0 300 0 257.2 0C214.3 0 171.7 0 128.8 0C86 0 43 0 21.5 0L0 0Z" fill="#dd3f31"></path></svg>